<?xml version="1.0" encoding="UTF-8"?>
<svg id="Layer_1" data-name="Layer 1" xmlns="http://www.w3.org/2000/svg" viewBox="0 0 16 16">
  <defs>
    <style>
      .cls-1 {
        fill: #fff;
        fill-rule: evenodd;
        stroke-width: 0px;
      }
    </style>
  </defs>
  <path class="cls-1" d="M1,8c0,3.87,3.13,7,7,7s7-3.13,7-7S11.87,1,8,1,1,4.13,1,8M16,8c0,4.42-3.58,8-8,8S0,12.42,0,8,3.58,0,8,0s8,3.58,8,8M4.5,7.5c-.28,0-.5.22-.5.5s.22.5.5.5h5.79l-2.15,2.15c-.2.2-.2.51,0,.71s.51.2.71,0l3-3c.2-.2.2-.51,0-.71,0,0,0,0,0,0l-3-3c-.2-.2-.51-.2-.71,0s-.2.51,0,.71l2.15,2.15h-5.79Z"/>
</svg>