<?xml version="1.0" encoding="UTF-8"?>
<svg id="Layer_1" data-name="Layer 1" xmlns="http://www.w3.org/2000/svg" viewBox="0 0 16 16">
  <defs>
    <style>
      .cls-1 {
        fill: #fff;
        stroke-width: 0px;
      }
    </style>
  </defs>
  <path class="cls-1" d="M8,15c-3.87,0-7-3.13-7-7S4.13,1,8,1s7,3.13,7,7-3.13,7-7,7M8,16c4.42,0,8-3.58,8-8S12.42,0,8,0,0,3.58,0,8s3.58,8,8,8"/>
  <path class="cls-1" d="M4.65,4.65c.2-.2.51-.2.71,0,0,0,0,0,0,0l2.65,2.65,2.65-2.65c.2-.2.51-.2.71,0s.2.51,0,.71l-2.65,2.65,2.65,2.65c.2.2.2.51,0,.71s-.51.2-.71,0l-2.65-2.65-2.65,2.65c-.2.2-.51.2-.71,0s-.2-.51,0-.71l2.65-2.65-2.65-2.65c-.2-.2-.2-.51,0-.71,0,0,0,0,0,0"/>
</svg>